<svg width="79" height="17" viewBox="0 0 79 17" fill="none" xmlns="http://www.w3.org/2000/svg">
    <path d="M2.173 14.445H0.847V16.4H2.173C3.924 16.4 4.689 15.533 4.689 13.952V4.075H2.173V14.445ZM3.431 3.123C4.451 3.123 4.893 2.596 4.893 1.882V1.508C4.893 0.793999 4.451 0.267 3.431 0.267C2.411 0.267 1.969 0.793999 1.969 1.508V1.882C1.969 2.596 2.411 3.123 3.431 3.123ZM12.3073 13H14.8233V4.075H12.3073V9.872C12.3073 10.722 11.5083 11.164 10.7263 11.164C9.80826 11.164 9.45126 10.552 9.45126 9.464V4.075H6.93526V9.685C6.93526 11.929 7.90426 13.204 9.72326 13.204C11.1853 13.204 11.9163 12.405 12.2223 11.504H12.3073V13ZM20.1902 13.204C22.4852 13.204 24.0152 11.946 24.0152 10.229C24.0152 8.682 23.0122 7.798 21.0742 7.543L20.0712 7.407C19.3402 7.305 19.1362 7.05 19.1362 6.574C19.1362 6.132 19.4762 5.826 20.3262 5.826C21.0742 5.826 21.8222 6.183 22.3832 6.744L23.8282 5.265C22.9272 4.381 22.0602 3.871 20.1902 3.871C18.0652 3.871 16.7222 5.061 16.7222 6.778C16.7222 8.393 17.7082 9.277 19.7312 9.532L20.7002 9.651C21.3292 9.736 21.6012 9.957 21.6012 10.399C21.6012 10.926 21.2612 11.249 20.2752 11.249C19.3062 11.249 18.5412 10.807 17.9122 10.11L16.4332 11.606C17.3512 12.626 18.4732 13.204 20.1902 13.204ZM30.2218 13V11.045H28.5898V6.03H30.3578V4.075H28.5898V1.661H26.3288V3.123C26.3288 3.735 26.1248 4.075 25.4448 4.075H24.8158V6.03H26.0738V10.399C26.0738 12.099 26.9918 13 28.7258 13H30.2218ZM40.7472 13V11.045H39.1152V6.03H40.8832V4.075H39.1152V1.661H36.8542V3.123C36.8542 3.735 36.6502 4.075 35.9702 4.075H35.3412V6.03H36.5992V10.399C36.5992 12.099 37.5172 13 39.2512 13H40.7472ZM46.1856 13.204C48.8036 13.204 50.3676 11.402 50.3676 8.529C50.3676 5.656 48.8036 3.871 46.1856 3.871C43.5676 3.871 42.0036 5.656 42.0036 8.529C42.0036 11.402 43.5676 13.204 46.1856 13.204ZM46.1856 11.215C45.1996 11.215 44.6216 10.569 44.6216 9.447V7.628C44.6216 6.506 45.1996 5.86 46.1856 5.86C47.1716 5.86 47.7496 6.506 47.7496 7.628V9.447C47.7496 10.569 47.1716 11.215 46.1856 11.215ZM63.1479 13V11.045H58.5749L63.0289 6.047V4.075H55.8209V6.03H60.1049L55.6679 11.011V13H63.1479ZM66.2347 3.123C67.2547 3.123 67.6967 2.596 67.6967 1.882V1.508C67.6967 0.793999 67.2547 0.267 66.2347 0.267C65.2147 0.267 64.7727 0.793999 64.7727 1.508V1.882C64.7727 2.596 65.2147 3.123 66.2347 3.123ZM64.9767 13H67.4927V4.075H64.9767V13ZM69.841 16.4H72.357V11.504H72.442C72.697 12.473 73.683 13.204 74.839 13.204C77.1 13.204 78.273 11.555 78.273 8.529C78.273 5.503 77.1 3.871 74.839 3.871C73.683 3.871 72.697 4.585 72.442 5.571H72.357V4.075H69.841V16.4ZM74.006 11.164C73.054 11.164 72.357 10.671 72.357 9.855V7.22C72.357 6.404 73.054 5.911 74.006 5.911C74.958 5.911 75.655 6.642 75.655 7.764V9.311C75.655 10.433 74.958 11.164 74.006 11.164Z"
          fill="black"/>
</svg>
