<svg width="77" height="17" viewBox="0 0 77 17" fill="none" xmlns="http://www.w3.org/2000/svg">
    <path d="M7.769 13C7.31567 13 6.936 12.8583 6.63 12.575C6.33533 12.2917 6.14833 11.912 6.069 11.436H5.967C5.831 12.014 5.53067 12.456 5.066 12.762C4.60133 13.0567 4.029 13.204 3.349 13.204C2.45367 13.204 1.768 12.966 1.292 12.49C0.816 12.014 0.578 11.385 0.578 10.603C0.578 9.66233 0.918 8.96533 1.598 8.512C2.28933 8.04733 3.22433 7.815 4.403 7.815H5.814V7.254C5.814 6.82333 5.70067 6.48333 5.474 6.234C5.24733 5.97333 4.86767 5.843 4.335 5.843C3.83633 5.843 3.43967 5.95067 3.145 6.166C2.85033 6.38133 2.60667 6.625 2.414 6.897L0.918 5.571C1.28067 5.03833 1.734 4.62467 2.278 4.33C2.83333 4.024 3.58133 3.871 4.522 3.871C5.79133 3.871 6.74333 4.14867 7.378 4.704C8.01267 5.25933 8.33 6.06967 8.33 7.135V11.045H9.163V13H7.769ZM4.284 11.453C4.70333 11.453 5.06033 11.3623 5.355 11.181C5.661 10.9997 5.814 10.705 5.814 10.297V9.243H4.59C3.604 9.243 3.111 9.57733 3.111 10.246V10.501C3.111 10.8297 3.213 11.0733 3.417 11.232C3.621 11.3793 3.91 11.453 4.284 11.453ZM10.8517 13V4.075H13.3677V5.588H13.4697C13.6284 5.12333 13.906 4.721 14.3027 4.381C14.6994 4.041 15.249 3.871 15.9517 3.871C16.8697 3.871 17.561 4.177 18.0257 4.789C18.5017 5.401 18.7397 6.27367 18.7397 7.407V13H16.2237V7.611C16.2237 7.033 16.133 6.608 15.9517 6.336C15.7704 6.05267 15.4474 5.911 14.9827 5.911C14.7787 5.911 14.5804 5.93933 14.3877 5.996C14.195 6.04133 14.0194 6.12067 13.8607 6.234C13.7134 6.34733 13.5944 6.489 13.5037 6.659C13.413 6.81767 13.3677 7.00467 13.3677 7.22V13H10.8517ZM26.3029 4.075H28.6489L25.2149 14.377C24.9882 15.0683 24.6652 15.5783 24.2459 15.907C23.8379 16.2357 23.2485 16.4 22.4779 16.4H20.9139V14.445H22.5969L22.9029 13.459L19.7749 4.075H22.2739L23.5829 8.24L24.2289 10.824H24.3309L24.9939 8.24L26.3029 4.075ZM37.0725 13C36.1998 13 35.5368 12.779 35.0835 12.337C34.6415 11.895 34.4205 11.249 34.4205 10.399V6.03H33.1625V4.075H33.7915C34.1315 4.075 34.3638 3.99567 34.4885 3.837C34.6132 3.667 34.6755 3.429 34.6755 3.123V1.661H36.9365V4.075H38.7045V6.03H36.9365V11.045H38.5685V13H37.0725ZM44.0069 13.204C43.3496 13.204 42.7602 13.0963 42.2389 12.881C41.7289 12.6657 41.2926 12.354 40.9299 11.946C40.5786 11.538 40.3066 11.045 40.1139 10.467C39.9212 9.889 39.8249 9.243 39.8249 8.529C39.8249 7.815 39.9212 7.169 40.1139 6.591C40.3066 6.013 40.5786 5.52567 40.9299 5.129C41.2926 4.721 41.7289 4.40933 42.2389 4.194C42.7602 3.97867 43.3496 3.871 44.0069 3.871C44.6642 3.871 45.2479 3.97867 45.7579 4.194C46.2792 4.40933 46.7156 4.721 47.0669 5.129C47.4296 5.52567 47.7072 6.013 47.8999 6.591C48.0926 7.169 48.1889 7.815 48.1889 8.529C48.1889 9.243 48.0926 9.889 47.8999 10.467C47.7072 11.045 47.4296 11.538 47.0669 11.946C46.7156 12.354 46.2792 12.6657 45.7579 12.881C45.2479 13.0963 44.6642 13.204 44.0069 13.204ZM44.0069 11.215C44.5056 11.215 44.8909 11.062 45.1629 10.756C45.4349 10.45 45.5709 10.0137 45.5709 9.447V7.628C45.5709 7.06133 45.4349 6.625 45.1629 6.319C44.8909 6.013 44.5056 5.86 44.0069 5.86C43.5082 5.86 43.1229 6.013 42.8509 6.319C42.5789 6.625 42.4429 7.06133 42.4429 7.628V9.447C42.4429 10.0137 42.5789 10.45 42.8509 10.756C43.1229 11.062 43.5082 11.215 44.0069 11.215ZM53.4892 13V11.011L57.9262 6.03H53.6422V4.075H60.8502V6.047L56.3962 11.045H60.9692V13H53.4892ZM64.056 3.123C63.546 3.123 63.172 3.00967 62.934 2.783C62.7073 2.545 62.594 2.24467 62.594 1.882V1.508C62.594 1.14533 62.7073 0.850666 62.934 0.623999C63.172 0.386 63.546 0.267 64.056 0.267C64.566 0.267 64.9343 0.386 65.161 0.623999C65.399 0.850666 65.518 1.14533 65.518 1.508V1.882C65.518 2.24467 65.399 2.545 65.161 2.783C64.9343 3.00967 64.566 3.123 64.056 3.123ZM62.798 4.075H65.314V13H62.798V4.075ZM67.6623 4.075H70.1783V5.571H70.2633C70.3879 5.07233 70.6713 4.66433 71.1133 4.347C71.5666 4.02967 72.0823 3.871 72.6603 3.871C73.7936 3.871 74.6493 4.26767 75.2273 5.061C75.8053 5.85433 76.0943 7.01033 76.0943 8.529C76.0943 10.0477 75.8053 11.2093 75.2273 12.014C74.6493 12.8073 73.7936 13.204 72.6603 13.204C72.3656 13.204 72.0879 13.1587 71.8273 13.068C71.5666 12.9887 71.3286 12.8753 71.1133 12.728C70.9093 12.5693 70.7336 12.388 70.5863 12.184C70.4389 11.9687 70.3313 11.742 70.2633 11.504H70.1783V16.4H67.6623V4.075ZM71.8273 11.164C72.3033 11.164 72.6943 10.9997 73.0003 10.671C73.3176 10.331 73.4763 9.87767 73.4763 9.311V7.764C73.4763 7.19733 73.3176 6.74967 73.0003 6.421C72.6943 6.081 72.3033 5.911 71.8273 5.911C71.3513 5.911 70.9546 6.03 70.6373 6.268C70.3313 6.49467 70.1783 6.812 70.1783 7.22V9.855C70.1783 10.263 70.3313 10.586 70.6373 10.824C70.9546 11.0507 71.3513 11.164 71.8273 11.164Z"
          fill="black"/>
</svg>
